PathFileType	4	(X/Y/Z)	61_1_42_p0_0-588_filt_butterworth.trc
DataRate	CameraRate	NumFrames	NumMarkers	Units	OrigDataRate	OrigDataStartFrame	OrigNumFrames
50.0	50.0	7	27	m	50.0	220	588
Frame#	Time	RHip			RKnee			RAnkle			RBigToe			RSmallToe			RHeel			LHip			LKnee			LAnkle			LBigToe			LSmallToe			LHeel			Neck			Head			Nose			RShoulder			RElbow			RWrist			RThumb			RIndex			RPinky			LShoulder			LElbow			LWrist			LThumb			LIndex			LPinky			
		X1	Y1	Z1	X2	Y2	Z2	X3	Y3	Z3	X4	Y4	Z4	X5	Y5	Z5	X6	Y6	Z6	X7	Y7	Z7	X8	Y8	Z8	X9	Y9	Z9	X10	Y10	Z10	X11	Y11	Z11	X12	Y12	Z12	X13	Y13	Z13	X14	Y14	Z14	X15	Y15	Z15	X16	Y16	Z16	X17	Y17	Z17	X18	Y18	Z18	X19	Y19	Z19	X20	Y20	Z20	X21	Y21	Z21	X22	Y22	Z22	X23	Y23	Z23	X24	Y24	Z24	X25	Y25	Z25	X26	Y26	Z26	X27	Y27	Z27	
220	4.4	0.2724417970184013	0.7382203135297749	0.8047626931977399	0.2902811189974729	0.3430452675793534	0.7798743197027183	0.32360799868626705	-0.13288132192636942	0.9030677427822408	0.31526193220747184	-0.14346942289044223	0.7329422067736844	0.38586123316586385	-0.1379077733713573	0.768792834209203	0.2803913507206718	-0.22327762383267757	0.9958469726827313	0.0651279094327861	0.7320620097253827	0.7764567781647667	0.0598323735343245	0.3145880655937759	0.7809278655766415	0.05253778603426737	-0.12826028621101643	0.8777726206772255	0.1382789250330028	-0.13384013104126474	0.7003727583134511	0.0572549502999216	-0.1379670824303971	0.7164255915268228	0.04226652128221658	-0.21864020950075536	0.9653513668761534	0.13846068743164686	1.2675392066183426	0.8021660259264916	0.12193883500317072	1.5084578119154675	0.7856586960035248	0.1342792770902241	1.3863175061386845	0.7290214055665837	0.30816181731753933	1.1975195081029273	0.8448595004701633	0.391725090209865	0.9484785197474964	0.8440553622279717	0.4050458607630344	0.7432536840819229	0.7997436594634524	0.36542146844594425	0.6311366474754402	0.7387151071056174	0.37492219335253363	0.6144495953068195	0.7483351807196539	0.4184217519402892	0.6120560347714386	0.7662241446900588	-0.017009596899314226	1.1697739668327118	0.814607959164912	-0.033248941251826813	0.9039271809894518	0.818547418251345	-0.04400342150305181	0.7224882933465908	0.6926738509628328	0.02147883913329044	0.6457312482025428	0.6178075128720502	0.004917763335857157	0.6165845078128769	0.596643911105337	-0.05306463479436033	0.599389407269871	0.6638642782646463	
221	4.42	0.2735421476085327	0.7385287223509501	0.8057709176807374	0.2907478022660703	0.3427027238292667	0.7788170219588625	0.32369420191348	-0.1327632440078045	0.9029188041435522	0.31512481017137894	-0.1427326459247118	0.7327008403477772	0.3849467311511826	-0.13791192115692563	0.770342955600992	0.2801170392320629	-0.22320559609124543	0.9958814146456344	0.06589057774964849	0.7324492555225721	0.7759960722018076	0.060234240447470014	0.31515249972386195	0.779597251041036	0.05155119378543653	-0.12900303427963783	0.8788317396837457	0.13719307390458077	-0.1352338569036768	0.7023192293431694	0.057244305190320637	-0.1380387414563593	0.7164487214077222	0.0420333693803974	-0.2173162961255164	0.9648980954558081	0.14013875892962202	1.2679863846521038	0.8021347820282245	0.12392066814137431	1.508242959932453	0.7859222636419434	0.1402070099087973	1.3866449809589243	0.7273637230334854	0.30872886188044824	1.1970757777764431	0.8452404349602184	0.3945574452460872	0.9465567555587548	0.8492031869732743	0.4070236198602847	0.743164401559478	0.8021263542501981	0.36813638699190165	0.6317585833737567	0.7381367311059799	0.3779123318833462	0.617484284032206	0.7439790400211302	0.4190728624896669	0.6154991799880469	0.7631861485178714	-0.015752932912841598	1.1697510911970217	0.8140785123870534	-0.03208019464118589	0.9054734798664916	0.8156939272578441	-0.04028681096858482	0.7223539447436941	0.6910835344429419	0.023244676977166784	0.6445671657997084	0.6177673057193812	0.009078529244516468	0.6169902871389177	0.5975412420815941	-0.0510737885043346	0.5988778510593078	0.6613127002844803	
222	4.44	0.2747110727011881	0.7388169197662466	0.8069531286027345	0.2911343331596707	0.342321945393453	0.77829299614598	0.3237078847551096	-0.13255971337812195	0.9026759658843879	0.31514870367924025	-0.14279735042478173	0.7326949301566625	0.38458910299664895	-0.13680963166947818	0.7701534645660515	0.2799082895188726	-0.22295264655268765	0.9956886961547824	0.0666372709032031	0.7329158842457077	0.775605432685609	0.06083925305628823	0.31572910687455863	0.7784682687814001	0.05062692675940757	-0.12982917061527288	0.8798182600065163	0.13633666541390108	-0.13608988667600766	0.7032860555359102	0.05724638844237644	-0.1382075713844087	0.7164430386845114	0.04170422172351662	-0.2160517357876351	0.9644682991805059	0.14161266626579516	1.2680258559801778	0.8036500238430886	0.12541212719807393	1.5082510974623202	0.7860414174268249	0.14703811267459616	1.3876080517155265	0.7225835905301905	0.30979329478271217	1.1969269256183506	0.8455434421952822	0.3973603677233818	0.9443922838548506	0.855378563992448	0.4089004751261207	0.7431489670214989	0.8047616099114374	0.3706847724304141	0.6327509808256995	0.739216562254202	0.3816064190914877	0.6208884406778186	0.7393527614704604	0.4198205192873904	0.6189739058645723	0.7603803335287471	-0.01449909267937826	1.1697971245584091	0.8146133527345761	-0.030660089085111704	0.9074696950119221	0.8127737604605536	-0.03671539940434911	0.7219858961946457	0.6904656673716004	0.024487247468776882	0.6436278681530143	0.6177225307561739	0.012595173379836379	0.6174543678976747	0.5983913630454633	-0.04885225768924774	0.5991848314306714	0.6583149963574941	
223	4.46	0.27598804846741615	0.7389738632205674	0.8084959944491094	0.29150018892480484	0.3418787207178712	0.7784371566427157	0.32361986676324567	-0.13226155168156997	0.9024330224255661	0.31532769070872047	-0.14365438734722036	0.7329422204430768	0.385082879812373	-0.13506647322431842	0.7686256559657952	0.27970615249136394	-0.22266551728786707	0.9952942877880806	0.0673525569684453	0.7333740679344034	0.7752642447847855	0.06162737015151074	0.31611335572820154	0.7777100189161895	0.04976096175199955	-0.130613749905368	0.8808223558302642	0.13578338417555097	-0.13655332703719478	0.7035983013126409	0.05724067750251401	-0.13839580011141697	0.7164390262284547	0.0413661248970783	-0.21495508143948888	0.9639968430348144	0.14282670836124314	1.2678020027454073	0.8061703863644452	0.12698289763370824	1.5085184960137306	0.7859050679753161	0.15421213335503817	1.3892624732602712	0.7155933721610135	0.311236735880683	1.1971044222014204	0.8452484227959354	0.39982359501522724	0.9423425936057055	0.8615581876675449	0.41048514632153077	0.7433889316586434	0.8071273715809685	0.3729302079440039	0.6344103871076939	0.7420066784747731	0.38538513043169265	0.6237890519427236	0.7355384409728932	0.42063588129211654	0.6218042920731506	0.7592047774487375	-0.013174212956939475	1.170348299701671	0.8154827900293242	-0.029153133467698447	0.9096589620274629	0.8101329313490222	-0.0335382006252284	0.7214796170715793	0.690607518985214	0.02522680656494654	0.6427726334548128	0.6176518897355241	0.01522162302903943	0.617809495486637	0.5992226973599617	-0.04625435642461454	0.6004273857829785	0.6548797374122239	
224	4.48	0.2773994712617541	0.7389421236839449	0.8104600038660437	0.2919071487487709	0.34143005370527646	0.7792081299483989	0.32351050296992473	-0.13193304646705212	0.9020630138587287	0.31559967865087973	-0.14499052941494273	0.7333699336778439	0.3862309026008601	-0.1334842941408186	0.7667389013426743	0.2795166377502761	-0.22251557068969566	0.9948593508792324	0.0680205600843503	0.73366340042799	0.7749364732626307	0.0625854338540113	0.31613102074356725	0.7773895350816357	0.04892671482298186	-0.1312626023493647	0.8818790176522574	0.13551808769515383	-0.13717308111014645	0.7044484484043663	0.0571950442056373	-0.13842873161941516	0.716529116627624	0.041058677957942366	-0.21408528962846365	0.9635037295065165	0.14403709111602986	1.267459474682278	0.8089866918483608	0.1288550640503458	1.5090142157016853	0.7856537167276629	0.16098625098079267	1.3916091851806163	0.7076864874240065	0.31301778468422575	1.1975373207803381	0.8439825140034949	0.40189791378859596	0.9408608911719549	0.8672119993202967	0.4118432507587414	0.7442051166530865	0.8084702436979745	0.37522997514415457	0.6370247816805465	0.745516304568164	0.3889372307161271	0.6260417446880151	0.7328107230013069	0.42137720124030015	0.6235980397629622	0.7606135373274941	-0.011670191815787063	1.171696180729046	0.8157371487489018	-0.02769420887293366	0.9118619963820482	0.8081536244690071	-0.030345029965243756	0.721242903225733	0.690471370620686	0.025763217142237442	0.6419400519452598	0.6176195690371347	0.016962287643763042	0.6179540781125106	0.5997182606636259	-0.043003630874702936	0.602390961095889	0.6511333847605338	
225	4.5	0.2789316219805407	0.7387861557368164	0.8126876946414836	0.29236870952302163	0.3411164775031651	0.7805281561287338	0.32351452968594735	-0.13166242388669622	0.901543386251536	0.31587565179284277	-0.14639149581561461	0.7338735423615016	0.38740705470754233	-0.1329732011138556	0.7659276605251578	0.27936624378279107	-0.22252618869172	0.9945082542834497	0.06863920646236235	0.733718849242403	0.7746067938789762	0.06370965658193278	0.3157561656826414	0.777506989307223	0.04813068406227567	-0.1318135763062848	0.8829319037234916	0.13550569216814698	-0.1382040316575806	0.7066035102556014	0.057096885409250106	-0.1381802072904766	0.716790747688686	0.04078247338523099	-0.2134574272038805	0.9630201945136874	0.1454781884121563	1.2670261094199708	0.8116024123167151	0.13081777224278737	1.5095199924943716	0.7857554442546382	0.1668601889357536	1.394457529291017	0.6999977086610296	0.31519321096804603	1.1981504027307148	0.8418184884862755	0.40356527527070796	0.940003027883849	0.8725795513599275	0.4131879613562439	0.7457045868913459	0.8085244046081093	0.378048552777404	0.6408386572021884	0.748394762836571	0.3924959607697266	0.6284977145968297	0.7306427152647618	0.42193909151851056	0.6240755018640571	0.7646754622933902	-0.009689694098490534	1.1738420136665813	0.8149007083383899	-0.026481167719714434	0.9136972321204762	0.8071560872323098	-0.026764542986366463	0.7216066770016356	0.6890081217521377	0.026398760933759362	0.6410207315906399	0.6176886534665941	0.01803440680120841	0.6177896862839595	0.5996734578267263	-0.03899559405293495	0.6045981507420326	0.6471993576102235	
226	4.52	0.28047709433442614	0.7386446082372153	0.814929086963014	0.29285516156180635	0.34098674555799385	0.7822408124634035	0.32368951301383964	-0.1314930979173631	0.901022067980474	0.3161041393677513	-0.14754733587305371	0.734339105767483	0.38812807943797384	-0.1340588001411459	0.7672993798153668	0.27926987633632866	-0.22261542885049027	0.9943608937955251	0.06923689021211195	0.7336678954019291	0.7742517071664573	0.06495574650051994	0.31517430071256736	0.7779709599259484	0.04739904506087427	-0.13235786066369065	0.8838758421286155	0.13565235062847258	-0.13925576707144122	0.7096254151925482	0.056956170292857364	-0.13763891790834176	0.7172373065133415	0.04053364803205747	-0.21307475250899446	0.9625629413627903	0.14711320031862987	1.2665032937825584	0.8138095585951204	0.13266759827233676	1.5096978995585713	0.7868373870791723	0.17154678838382303	1.3973895273230978	0.6934101352634561	0.3176486108178026	1.198883865657745	0.8391276288447865	0.40470599020889186	0.9395045795169583	0.877461178624043	0.4147421577637939	0.7476162095024054	0.8079683137795455	0.3814665402411776	0.6459483686269004	0.7495798173664154	0.39643377119885603	0.6320352677144716	0.7286416973222902	0.4222989827135714	0.6232351541467993	0.7706015900971677	-0.0068943192067443	1.1765286231415522	0.8131900162913088	-0.025783113053785098	0.9146302931285439	0.807078945058523	-0.02309909886553234	0.7225811545480303	0.6859608486043879	0.027088651697077366	0.6396819267008673	0.6177686656952983	0.018692718720011922	0.6172796655195381	0.599430997127042	-0.03458342695390181	0.6065846923446573	0.6433445075497991	
